{"title":"The First Purge 2018 1080p WEB-DL DD 5.1 x264 [MW]","magnet":"magnet:?xt=urn:btih:4e23a3f594627e674be33263dbd0b51a410e13e8&dn=The+First+Purge+2018+1080p+WEB-DL+DD+5.1+x264+%5BMW%5D&tr=udp%3A%2F%2Ftracker.leechers-paradise.org%3A6969&tr=udp%3A%2F%2Fzer0day.ch%3A1337&tr=udp%3A%2F%2Fopen.demonii.com%3A1337&tr=udp%3A%2F%2Ftracker.coppersurfer.tk%3A6969&tr=udp%3A%2F%2Fexodus.desync.com%3A6969","uploader":"MFreaky","categoryP":"video","categoryS":"hd___movies","size":"2055819965","seeders":"1","leechers":"0","description":" <a href=\"https://pichub.site/image/Ezp44\" rel=\"nofollow\" target=\"_NEW\">https://pichub.site/image/Ezp44</a> <a href=\"\nhttps://pichub.site/image/Ez5Ly\" rel=\"nofollow\" target=\"_NEW\">\nhttps://pichub.site/image/Ez5Ly</a> <a href=\"\nhttps://pichub.site/image/EzlFb\" rel=\"nofollow\" target=\"_NEW\">\nhttps://pichub.site/image/EzlFb</a> <a href=\"\nhttps://pichub.site/image/EzPd0\" rel=\"nofollow\" target=\"_NEW\">\nhttps://pichub.site/image/EzPd0</a> <a href=\"\nhttps://pichub.site/image/EzXGV\" rel=\"nofollow\" target=\"_NEW\">\nhttps://pichub.site/image/EzXGV</a> <a href=\"\nhttps://pichub.site/image/Ezn3T\" rel=\"nofollow\" target=\"_NEW\">\nhttps://pichub.site/image/Ezn3T</a>\r\n\r\nIMDB <a href=\"\nhttps://www.imdb.com/title/tt6133466/\" rel=\"nofollow\" target=\"_NEW\">\nhttps://www.imdb.com/title/tt6133466/</a>\r\n\r\nVideo\r\nFormat                                   : AVC\r\nFormat/Info                              : Advanced Video Codec\r\nFormat profile                           : High@L4.1\r\nFormat settings                          : CABAC / 4 Ref Frames\r\nFormat settings, CABAC                   : Yes\r\nFormat settings, RefFrames               : 4 frames\r\nCodec ID                                 : V_MPEG4/ISO/AVC\r\nDuration                                 : 1 h 37 min\r\nBit rate                                 : 2 500 kb/s\r\nWidth                                    : 1 920 pixels\r\nHeight                                   : 802 pixels\r\nDisplay aspect ratio                     : 2.40:1\r\nFrame rate mode                          : Constant\r\nFrame rate                               : 23.976 (24000/1001) FPS\r\nColor space                              : YUV\r\nChroma subsampling                       : 4:2:0\r\nBit depth                                : 8 bits\r\nScan type                                : Progressive\r\nBits/(Pixel*Frame)                       : 0.068\r\nStream size                              : 1.65 GiB (86%)\r\nWriting library                          : x264 core 155 r2901 7d0ff22\r\n\r\nAudio\r\nFormat                                   : AC-3\r\nFormat/Info                              : Audio Coding 3\r\nCodec ID                                 : A_AC3\r\nDuration                                 : 1 h 37 min\r\nBit rate mode                            : Constant\r\nBit rate                                 : 384 kb/s\r\nChannel(s)                               : 6 channels\r\nChannel positions                        : Front: L C R, Side: L R, LFE\r\nSampling rate                            : 48.0 kHz\r\nFrame rate                               : 31.250 FPS (1536 SPF)\r\nBit depth                                : 16 bits\r\nStream size                              : 268 MiB (14%)\r\nLanguage                                 : English","last_updated":"2018-09-19T12:02:48.866Z","parsed":{"xt":"urn:btih:4e23a3f594627e674be33263dbd0b51a410e13e8","dn":"The First Purge 2018 1080p WEB-DL DD 5.1 x264 [MW]","tr":["udp://exodus.desync.com:6969","udp://open.demonii.com:1337","udp://tracker.coppersurfer.tk:6969","udp://tracker.leechers-paradise.org:6969","udp://zer0day.ch:1337"],"infoHash":"4e23a3f594627e674be33263dbd0b51a410e13e8","infoHashBuffer":{"type":"Buffer","data":[78,35,163,245,148,98,126,103,75,227,50,99,219,208,181,26,65,14,19,232]},"name":"The First Purge 2018 1080p WEB-DL DD 5.1 x264 [MW]","announce":["udp://exodus.desync.com:6969","udp://open.demonii.com:1337","udp://tracker.coppersurfer.tk:6969","udp://tracker.leechers-paradise.org:6969","udp://zer0day.ch:1337"],"urlList":[]}}